<svg xmlns="http://www.w3.org/2000/svg" viewBox="0 0 150.58 40.15"><defs><style>.cls-1{fill:#fff;}.cls-2{fill:#bc0811;}.cls-3{fill:#711629;}</style></defs><g id="Capa_2" data-name="Capa 2"><g id="Capa_1-2" data-name="Capa 1"><path class="cls-1" d="M53.58,29.6c-3.39,0-5.66-.46-7.43-2.67-1.3-1.61-2-3.76-2-7.92,0-3.63.34-6.37,1.89-8.32,2-2.55,5.16-2.83,7.61-2.83h9.19v5.4h-5.8c-2.3,0-4,0-5,1.71a8.73,8.73,0,0,0-.72,3.92c0,2.42.34,3.23.53,3.6.93,1.71,3,1.71,5.28,1.71h6v5.4Z"/><path class="cls-1" d="M71.51,10.25c.68-1.61,1.61-2.64,5-2.64,2.08,0,3.94.22,5,2.64l8,19.35H82.1l-1.71-4.47H72.56L70.85,29.6H63.46Zm2.73,9.91h4.47l-1.95-5.5c-.07-.15-.19-.46-.28-.46s-.22.31-.28.46Z"/><path class="cls-1" d="M98.22,29.6c-3.38,0-5.65-.46-7.42-2.67-1.3-1.61-2-3.76-2-7.92,0-3.63.34-6.37,1.9-8.32,2-2.55,5.15-2.83,7.61-2.83h9.19v5.4H101.7c-2.3,0-4,0-5,1.71A8.86,8.86,0,0,0,96,18.89c0,2.42.34,3.23.53,3.6.93,1.71,3,1.71,5.28,1.71h6v5.4Z"/><path class="cls-1" d="M113,29.6a3.86,3.86,0,0,1-2.64-.74,3,3,0,0,1-1-2.74V11.21a3.11,3.11,0,0,1,.93-2.48A3.78,3.78,0,0,1,113,7.86h15.62v5.28H117.83a1.72,1.72,0,0,0-1.09.31,1.33,1.33,0,0,0-.34,1.06v1.64h11.86v4.72H116.4v2.37a1,1,0,0,0,.31.8,2,2,0,0,0,1.33.28h10.63V29.6Z"/><path class="cls-2" d="M134.15,29.6a3.76,3.76,0,0,1-2.36-.68,2.82,2.82,0,0,1-1-2.11V7.86h7v15a1.5,1.5,0,0,0,.35,1.06,1.7,1.7,0,0,0,1.11.28h11.28v5.4Z"/><polygon class="cls-3" points="18.82 21.74 6.2 14.45 6.2 28.57 3.72 27.13 3.72 13.02 3.72 13.02 0 10.87 0 29.27 0 29.28 18.82 40.15 18.82 21.74"/><polygon class="cls-2" points="18.82 0 0 10.87 0 10.87 3.72 13.02 18.82 4.29 33.92 13.02 37.64 10.87 37.64 10.87 18.82 0"/><polygon class="cls-2" points="33.92 13.02 33.92 19.51 37.64 17.37 37.64 10.87 33.92 13.02"/><polygon class="cls-2" points="33.92 24.93 33.92 31.43 33.92 31.43 37.64 29.28 37.64 29.28 37.64 22.78 33.92 24.93"/><polygon class="cls-2" points="18.82 21.74 18.82 40.15 31.44 32.86 31.44 26.38 27.72 28.53 27.72 30.71 22.54 33.7 22.54 23.89 27.72 20.89 27.72 23.07 31.44 20.93 31.44 14.45 18.82 21.74"/><polygon class="cls-2" points="18.82 7.16 6.2 14.45 6.2 14.45 9.92 16.6 18.82 11.45 27.72 16.6 27.72 16.6 31.44 14.45 31.44 14.45 18.82 7.16"/></g></g></svg>